# xmcd
#
# Track frame offsets:
#	150
#	44229
#	71089
#	109467
#	135935
#	166677
#	190266
#	223428
#	278041
#	304706
#	326386
#
# Disc length: 4799 seconds
#
# Revision: 1
# Processed by: cddbd v1.5.2PL0 Copyright (c) Steve Scherf et al.
# Submitted via: EZCDAudioConverter 8.5.0.1
#
DISCID=a812bd0b
DTITLE=V/A - 12"/80s Chilled 2/3
DYEAR=2014
DGENRE=
TTITLE0=Thompson Twins - Hold Me Now [Extended Version]
TTITLE1=David Sylvian and Ryuichi Sakamoto - Forbidden Colours [Extended Version
TTITLE1=]
TTITLE2=Howard Jones - Hide And Seek [Long Version]
TTITLE3=Fiction Factory - Feels Like Heaven [12" Version]
TTITLE4=Nik Kershaw - Wouldn't It Be Good [Extended 12" Mix]
TTITLE5=The Art Of Noise - Love Beat
TTITLE6=Hall and Oates - Out Of Touch [Dub Version]
TTITLE7=Frankie Goes To Hollywood - Rage Hard [Young Person's Guide Into The 1
TTITLE7=2" Mix Version]
TTITLE8=The Blue Nile - Tinseltown In The Rain [12" Version]
TTITLE9=Matt Bianco - Half A Minute [Extended Version]
TTITLE10=Level 42 - Love Games [Full Length Version]
EXTD=
EXTT0=
EXTT1=
EXTT2=
EXTT3=
EXTT4=
EXTT5=
EXTT6=
EXTT7=
EXTT8=
EXTT9=
EXTT10=
PLAYORDER=
